<?xml version="1.0" encoding="utf-8"?>
<!-- Generator: Adobe Illustrator 25.4.1, SVG Export Plug-In . SVG Version: 6.00 Build 0)  -->
<svg version="1.1" id="Layer_1" xmlns="http://www.w3.org/2000/svg" xmlns:xlink="http://www.w3.org/1999/xlink" x="0px" y="0px"
	 viewBox="0 0 321.8 416.5" style="enable-background:new 0 0 321.8 416.5;" xml:space="preserve">
<style type="text/css">
	.st0{fill:#0D0D0D;stroke:#0D0D0D;stroke-width:30;stroke-miterlimit:10;}
</style>
<g id="Layer_2_00000159459004272089274950000014869926666805863319_">
	<g id="Layer_1-2">
		<path class="st0" d="M296.6,211.3c0-55.1-60.8-99.8-135.7-99.8S25.2,156.2,25.2,211.3v176.4h271.3V211.3H296.6z M160.9,117.7
			c70.3,0,127.2,41.9,127.2,93.6s-57,93.6-127.2,93.6S33.7,263,33.7,211.3S90.6,117.7,160.9,117.7L160.9,117.7z M33.7,381.5V245.9
			c18.2,36.2,64.1,62.4,118.8,64.9v70.6L33.7,381.5z M160.9,381.5v-70.4c58.4,0,108.1-27.1,127.3-65.1v135.6H160.9V381.5z"/>
	</g>
</g>
<g id="Layer_2-2">
	<g id="Layer_1-2-2">
		<path class="st0" d="M25.2,205.1c0,55.1,60.8,99.8,135.7,99.8s135.7-44.7,135.7-99.8V28.7H25.3L25.2,205.1L25.2,205.1z
			 M160.9,298.7c-70.3,0-127.2-41.9-127.2-93.6s57-93.6,127.2-93.6s127.2,41.9,127.2,93.6S231.2,298.7,160.9,298.7z M288.1,34.9
			v135.6c-18.2-36.2-64.1-62.4-118.8-64.9V35L288.1,34.9z M160.9,34.9v70.4c-58.4,0-108.1,27.1-127.3,65.1V34.8L160.9,34.9
			L160.9,34.9z"/>
	</g>
</g>
</svg>
